<?xml version="1.0" standalone="no"?><!DOCTYPE svg PUBLIC "-//W3C//DTD SVG 1.1//EN" "http://www.w3.org/Graphics/SVG/1.1/DTD/svg11.dtd"><svg t="1768483858143" class="icon" viewBox="0 0 1024 1024" version="1.1" xmlns="http://www.w3.org/2000/svg" p-id="1134" xmlns:xlink="http://www.w3.org/1999/xlink" width="200" height="200"><path d="M947.332876 321.975109 702.019775 76.659961c-15.163351-15.155165-39.759539-15.163351-54.933123 0-3.295046 3.295046-74.008574 75.53637-46.833655 170.547281L489.192551 358.273826c-60.721967-18.435884-217.759559-50.338479-333.376787 65.274656-15.168468 15.173584-15.168468 39.764656 0 54.93824l167.378102 167.379125L76.667124 892.39566c-15.168468 15.174608-15.168468 39.764656 0 54.93824 7.586792 7.582699 17.525142 11.375072 27.468608 11.375072s19.882839-3.793396 27.468608-11.375072L378.132106 700.804087l167.378102 167.380148c7.586792 7.581676 17.529235 11.375072 27.468608 11.375072 9.943466 0 19.881816-3.794419 27.468608-11.375072 115.612111-115.619274 83.715657-272.65175 65.273632-333.379856l111.065562-111.061468c95.025237 27.190269 167.254282-43.543725 170.546258-46.833655C962.501344 361.739764 962.501344 337.1446 947.332876 321.975109zM783.415596 343.479889c-14.817474-6.927783-32.375362-3.854794-43.945885 7.709589L593.633229 497.02289c-11.04352 11.04352-14.358009 27.729551-8.472975 42.197054 0.174985 0.436952 17.676591 44.046169 20.654412 100.501972 2.959402 56.104809-8.947789 104.181781-35.444257 143.453203L405.622204 618.423845c-0.00921-0.00921-0.013303-0.017396-0.021489-0.026606-0.00921-0.008186-0.017396-0.01228-0.026606-0.021489L240.825904 453.625498c104.037495-70.26839 237.759055-17.302061 243.856937-14.826684 14.510482 5.988388 31.191396 2.659573 42.291199-8.436136l145.831366-145.837506c11.561313-11.565407 14.642488-29.133527 7.710612-43.946908-13.58132-28.991288-8.615215-55.815213-0.052189-75.597769l178.540326 178.542372C839.198064 352.095104 812.379255 357.049952 783.415596 343.479889zM553.209564 553.705867c1.37123 3.053546 13.353123 30.720675 12.490475 61.154825-0.521886 18.430768-15.634072 33.021068-33.955346 33.021068-0.327458 0-0.654916-0.005117-0.986467-0.014326-18.762319-0.531096-33.542954-16.173354-33.006741-34.942837 0.355087-12.565177-4.674463-27.051099-6.643304-31.575136-7.462972-17.141402 0.284479-37.184901 17.389042-44.74304C525.57518 529.043165 545.552164 536.635073 553.209564 553.705867z" p-id="1135"></path></svg>