<?xml version="1.0" standalone="no"?><!DOCTYPE svg PUBLIC "-//W3C//DTD SVG 1.1//EN" "http://www.w3.org/Graphics/SVG/1.1/DTD/svg11.dtd"><svg t="1774327790636" class="icon" viewBox="0 0 1024 1024" version="1.1" xmlns="http://www.w3.org/2000/svg" p-id="1300" xmlns:xlink="http://www.w3.org/1999/xlink" width="200" height="200"><path d="M982.298 280.74L731.036 32.987a79.31 79.31 0 0 0-134.755 56.148v864.68a70.185 70.185 0 0 0 140.37 0v-716.59L882.636 383.21a70.185 70.185 0 0 0 99.662-102.47zM356.248 0a70.185 70.185 0 0 0-70.185 70.185v717.291L140.078 641.491a70.185 70.185 0 0 0-99.663 0 70.185 70.185 0 0 0 0 98.961l251.263 250.561a76.502 76.502 0 0 0 55.446 23.161 74.396 74.396 0 0 0 30.18-5.615 79.31 79.31 0 0 0 49.129-70.185V70.185A70.185 70.185 0 0 0 356.248 0z" p-id="1301"></path></svg>